<svg xmlns="http://www.w3.org/2000/svg" id="logo" width="101.399" height="19.335" viewBox="0 0 101.399 19.335">
    <defs>
        <style>
            .cls-1{fill:#fff}
        </style>
    </defs>
    <g id="Group_38810">
        <g id="Group_38809">
            <circle id="Ellipse_2613" cx="1.78" cy="1.78" r="1.78" class="cls-1" transform="translate(15.167 15.774)"/>
            <circle id="Ellipse_2614" cx="1.78" cy="1.78" r="1.78" class="cls-1" transform="translate(23.712 15.774)"/>
            <g id="Group_38623">
                <rect id="Rectangle_18730" width="9.257" height="2.848" class="cls-1" rx="1.424" transform="translate(0 .109)"/>
                <rect id="Rectangle_18734" width="13.529" height="2.848" class="cls-1" rx="1.424" transform="translate(12.105 .109)"/>
                <rect id="Rectangle_18731" width="14.954" height="2.848" class="cls-1" rx="1.424" transform="rotate(61 4.434 7.527)"/>
                <rect id="Rectangle_18732" width="12.105" height="2.848" class="cls-1" rx="1.424" transform="translate(15.167 5.806)"/>
                <rect id="Rectangle_18733" width="15.666" height="2.848" class="cls-1" rx="1.424" transform="translate(13.173 11.502)"/>
            </g>
            <path id="Path_29302" d="M-518.48 262a2.052 2.052 0 0 1 1.847 1.367c.588 1.4-.81.325-.81.325l-1.443-1.152z" class="cls-1" transform="translate(526.301 -261.891)"/>
            <path id="Path_29303" d="M-511.224 280.214a1.936 1.936 0 0 0 1.766 1.268c1.336.007 0-1.188 0-1.188z" class="cls-1" transform="translate(524.095 -267.135)"/>
        </g>
    </g>
    <path id="Path_29301" d="M-151.533-60.645a8.517 8.517 0 0 0 4.725-1.495l-1.206-2.17a5.565 5.565 0 0 1-3.038.94 3.547 3.547 0 0 1-3.737-3.375h8.318a6.59 6.59 0 0 0 .169-1.615c0-3.737-1.929-6.461-5.642-6.461-3.231 0-6.292 2.724-6.292 7.112.001 4.436 2.942 7.064 6.703 7.064zm-3.3-8.438c.265-1.977 1.519-2.99 2.941-2.99 1.736 0 2.556 1.157 2.556 2.99zm14.731 8.438c3.52 0 5.376-1.9 5.376-4.267 0-2.507-1.977-3.4-3.761-4.074-1.423-.53-2.748-.892-2.748-1.881 0-.771.579-1.3 1.784-1.3a5.2 5.2 0 0 1 2.917 1.157l1.591-2.146a7.557 7.557 0 0 0-4.6-1.664c-3.038 0-5.015 1.712-5.015 4.147 0 2.242 1.977 3.279 3.689 3.93 1.422.555 2.821 1.013 2.821 2.025 0 .844-.6 1.422-1.953 1.422a5.861 5.861 0 0 1-3.616-1.471l-1.615 2.218a8.507 8.507 0 0 0 5.132 1.904zm11.886 0a8.724 8.724 0 0 0 2.845-.506l-.579-2.58a3.945 3.945 0 0 1-1.326.289c-1.206 0-1.832-.723-1.832-2.266v-5.979h3.327v-2.8h-3.327V-78.1h-2.965l-.41 3.616-2.073.169v2.628h1.9v5.979c.001 3.038 1.23 5.063 4.437 5.063zm9.788 0c3.375 0 6.485-2.6 6.485-7.064 0-4.508-3.11-7.112-6.485-7.112s-6.485 2.6-6.485 7.112c-.003 4.46 3.107 7.064 6.482 7.064zm0-2.893c-1.832 0-2.869-1.639-2.869-4.171 0-2.556 1.037-4.219 2.869-4.219s2.869 1.663 2.869 4.219c-.003 2.531-1.041 4.171-2.872 4.171zm8.872 2.556h3.52v-8.052c.771-1.953 2.049-2.652 3.11-2.652a4.255 4.255 0 0 1 1.4.217l.627-3.062a3.82 3.82 0 0 0-1.591-.289 4.677 4.677 0 0 0-3.833 2.724h-.1l-.241-2.387h-2.893zm15.5.338a8.517 8.517 0 0 0 4.725-1.495l-1.205-2.17a5.565 5.565 0 0 1-3.038.94 3.547 3.547 0 0 1-3.737-3.375h8.318a6.582 6.582 0 0 0 .169-1.615c0-3.737-1.929-6.461-5.642-6.461-3.231 0-6.292 2.724-6.292 7.112-.001 4.435 2.94 7.063 6.701 7.063zm-3.3-8.438c.265-1.977 1.519-2.99 2.941-2.99 1.736 0 2.556 1.157 2.556 2.99z" class="cls-1" transform="translate(190.224 78.1)"/>
</svg>
